name D:\school\WTK\thesis\model\3dpredictsim\Results\MidTarsalJoint\Fal_s1_bCst_PF_Natali2010_ls150_MT_k200_d020_MTP_T5_ig23.mot
datacolumns 128
datarows 4
range 1.71834739 1.75271434
endheader
time	pelvis_tilt	pelvis_list	pelvis_rotation	pelvis_tx	pelvis_ty	pelvis_tz	hip_flexion_l	hip_adduction_l	hip_rotation_l	hip_flexion_r	hip_adduction_r	hip_rotation_r	knee_angle_l	knee_angle_r	ankle_angle_l	ankle_angle_r	subtalar_angle_l	subtalar_angle_r	mtj_angle_l	mtj_angle_r	mtp_angle_l	mtp_angle_r	lumbar_extension	lumbar_bending	lumbar_rotation	arm_flex_l	arm_add_l	arm_rot_l	arm_flex_r	arm_add_r	arm_rot_r	elbow_flex_l	elbow_flex_r	pro_sup_l	pro_sup_r	glut_med1_l/activation	glut_med2_l/activation	glut_med3_l/activation	glut_min1_l/activation	glut_min2_l/activation	glut_min3_l/activation	semimem_l/activation	semiten_l/activation	bifemlh_l/activation	bifemsh_l/activation	sar_l/activation	add_long_l/activation	add_brev_l/activation	add_mag1_l/activation	add_mag2_l/activation	add_mag3_l/activation	tfl_l/activation	pect_l/activation	grac_l/activation	glut_max1_l/activation	glut_max2_l/activation	glut_max3_l/activation	iliacus_l/activation	psoas_l/activation	quad_fem_l/activation	gem_l/activation	peri_l/activation	rect_fem_l/activation	vas_med_l/activation	vas_int_l/activation	vas_lat_l/activation	med_gas_l/activation	lat_gas_l/activation	soleus_l/activation	tib_post_l/activation	flex_dig_l/activation	flex_hal_l/activation	tib_ant_l/activation	per_brev_l/activation	per_long_l/activation	per_tert_l/activation	ext_dig_l/activation	ext_hal_l/activation	ercspn_l/activation	intobl_l/activation	extobl_l/activation	glut_med1_r/activation	glut_med2_r/activation	glut_med3_r/activation	glut_min1_r/activation	glut_min2_r/activation	glut_min3_r/activation	semimem_r/activation	semiten_r/activation	bifemlh_r/activation	bifemsh_r/activation	sar_r/activation	add_long_r/activation	add_brev_r/activation	add_mag1_r/activation	add_mag2_r/activation	add_mag3_r/activation	tfl_r/activation	pect_r/activation	grac_r/activation	glut_max1_r/activation	glut_max2_r/activation	glut_max3_r/activation	iliacus_r/activation	psoas_r/activation	quad_fem_r/activation	gem_r/activation	peri_r/activation	rect_fem_r/activation	vas_med_r/activation	vas_int_r/activation	vas_lat_r/activation	med_gas_r/activation	lat_gas_r/activation	soleus_r/activation	tib_post_r/activation	flex_dig_r/activation	flex_hal_r/activation	tib_ant_r/activation	per_brev_r/activation	per_long_r/activation	per_tert_r/activation	ext_dig_r/activation	ext_hal_r/activation	ercspn_r/activation	intobl_r/activation	extobl_r/activation	
          1.71834739	         -2.92795048	          2.43541611	         -5.89403912	          2.14793424	          0.91762125	          0.00094503	         28.65548919	          4.00703887	         -1.54142629	        -16.43686768	         -1.85715174	          6.66310668	        -11.54358541	        -11.16770738	          4.42329806	         -3.90907725	         -5.00314873	         11.07280421	         -0.00797814	          5.73595476	         -0.84093179	          9.98304700	         -1.78146545	         -0.66945957	          2.23643196	         -5.94473610	        -13.45984443	          6.63751774	          4.82425785	        -13.46988611	         17.36660103	         15.70778955	         36.25762887	         86.51662706	         86.51662706	          0.05000000	          0.05000001	          0.10176189	          0.05000001	          0.05000001	          0.05000002	          0.09216171	          0.05000016	          0.17886648	          0.05000004	          0.05000029	          0.11180297	          0.26072635	          0.31430792	          0.20913463	          0.11397774	          0.05000023	          0.07090799	          0.13535374	          0.06691109	          0.09713188	          0.12651881	          0.05000002	          0.05000055	          0.40901914	          0.22855579	          0.11636673	          0.05954684	          0.15077452	          0.15168009	          0.12883047	          0.05000009	          0.05954659	          0.05000001	          0.06258042	          0.05000128	          0.05954648	          0.45728070	          0.28416769	          0.19691411	          0.20906621	          0.43911246	          0.18741440	          0.05000000	          0.09620664	          0.08536285	          0.21799467	          0.08445549	          0.06414852	          0.24548592	          0.16958214	          0.08855930	          0.05000079	          0.05000015	          0.05000019	          0.05000005	          0.09005975	          0.16260526	          0.05954612	          0.05954676	          0.05954631	          0.05954641	          0.25176506	          0.06933920	          0.05001621	          0.05000105	          0.05000086	          0.05000252	          0.33458507	          0.56569536	          0.05145874	          0.05961779	          0.05954689	          0.20259039	          0.07705055	          0.14113447	          0.16551184	          0.23821370	          0.32470862	          0.29862437	          0.22157466	          0.20750017	          0.27497569	          0.05000000	          0.05000004	          0.14546678	          0.05000003	          0.05000000	          0.05000004	          0.05656933	          0.05954785	          0.05954639	
          1.72980304	         -2.92159807	          2.51753387	         -6.13768605	          2.16559125	          0.91667459	          0.00077221	         27.83711725	          4.26824854	         -1.27180917	        -16.27257704	         -2.15530850	          6.46091125	        -11.98141913	        -13.11404204	          3.89137148	         -4.60278369	         -5.40228566	         12.02756599	         -0.22182804	          4.53266910	         -0.86524312	         11.87564509	         -1.55713033	         -0.87585275	          2.29432777	         -6.88012206	        -13.46624823	          6.45593021	          4.42137754	        -13.47902037	         17.56320562	         15.39764050	         37.45016315	         86.51662706	         86.51662706	          0.23843282	          0.23982682	          0.28929100	          0.35599886	          0.21803025	          0.19417043	          0.08956400	          0.05210917	          0.15131884	          0.08445448	          0.05000880	          0.09387893	          0.21892717	          0.26391864	          0.17560658	          0.11325441	          0.05000013	          0.05954427	          0.11365429	          0.12875763	          0.11659508	          0.10623557	          0.05754932	          0.05000020	          0.34344590	          0.19191416	          0.23159110	          0.05000040	          0.12660263	          0.12736302	          0.10817661	          0.05000021	          0.05000029	          0.05034493	          0.05254765	          0.05000012	          0.05000023	          0.55162738	          0.33979159	          0.18016934	          0.33172858	          0.51228758	          0.21000647	          0.06143160	          0.11510229	          0.07167762	          0.34607138	          0.07091574	          0.05412494	          0.30937720	          0.14239506	          0.07436164	          0.05000050	          0.05000007	          0.05000006	          0.05000010	          0.07562195	          0.13653668	          0.05000016	          0.05000039	          0.05000035	          0.05000019	          0.22874320	          0.05822354	          0.05000043	          0.05000264	          0.05000082	          0.05000032	          0.28094520	          0.53578179	          0.05000034	          0.05006012	          0.05000047	          0.17011145	          0.06469798	          0.11850808	          0.13897730	          0.20002368	          0.27265189	          0.25074941	          0.18605220	          0.17423414	          0.23089209	          0.05000001	          0.09279893	          0.17367781	          0.05000006	          0.05000013	          0.05000010	          0.05095810	          0.05000124	          0.05000003	
          1.74125869	         -2.91353683	          2.59095818	         -6.34325149	          2.18332269	          0.91583465	          0.00058067	         26.97459812	          4.50782052	         -1.00330767	        -16.00129712	         -2.43844119	          6.27299914	        -12.38657755	        -15.19483119	          3.37700645	         -5.43865215	         -5.80693688	         12.93505190	         -0.22617022	          3.17292184	         -0.81524587	         13.79742009	         -1.33637331	         -1.08244024	          2.34249005	         -7.78961485	        -13.47313981	          6.33645412	          3.97306893	        -13.49271055	         17.69962704	         15.11163152	         38.60733804	         86.51662706	         86.51662706	          0.33484950	          0.33746080	          0.37152348	          0.29892579	          0.18307619	          0.20001458	          0.07822433	          0.09006585	          0.12705973	          0.07091497	          0.05000014	          0.07882843	          0.18382916	          0.22160778	          0.17108143	          0.15843163	          0.05000008	          0.05000041	          0.10081177	          0.22902276	          0.18151534	          0.15719727	          0.05000002	          0.05000002	          0.28838526	          0.16114683	          0.19446300	          0.05000001	          0.14521885	          0.16018047	          0.11504613	          0.05000000	          0.05000001	          0.05000000	          0.05000000	          0.05000003	          0.05000003	          0.60908069	          0.28905383	          0.15649482	          0.56616451	          0.54703327	          0.30780512	          0.08184054	          0.09664929	          0.06018639	          0.29158879	          0.05954666	          0.05000001	          0.25977860	          0.11956656	          0.06244012	          0.05000071	          0.05000006	          0.05000005	          0.05000006	          0.06349846	          0.14451908	          0.05000074	          0.05000036	          0.05000045	          0.05000033	          0.19207159	          0.06450469	          0.05000022	          0.05000039	          0.05000026	          0.05000016	          0.23590456	          0.49247187	          0.05000002	          0.05000011	          0.05000003	          0.14283948	          0.11020822	          0.11017673	          0.11673795	          0.16795622	          0.22894080	          0.21054969	          0.15622464	          0.14630126	          0.19387589	          0.09526938	          0.14466249	          0.15788409	          0.05000019	          0.12717362	          0.05000023	          0.07903963	          0.05000000	          0.05000000	
          1.75271434	         -2.90412898	          2.65753698	         -6.51254736	          2.20093526	          0.91516860	          0.00036142	         26.16507548	          4.75477508	         -0.73540798	        -15.59432313	         -2.70147372	          6.09370744	        -12.86271251	        -17.43502550	          2.82509728	         -6.36015389	         -6.20475468	         13.77285317	         -0.24230448	          1.67694179	         -0.79848732	         15.48504587	         -1.13302913	         -1.29043701	          2.38240726	         -8.63540705	        -13.47842851	          6.27238955	          3.52274622	        -13.50822485	         17.81114383	         14.83074869	         39.68420800	         86.51662706	         86.51662706	          0.43611597	          0.43941708	          0.46220558	          0.25737659	          0.25245911	          0.31183318	          0.07426854	          0.09484158	          0.10754166	          0.05954606	          0.05000010	          0.06619081	          0.15435802	          0.18609878	          0.22039447	          0.18424685	          0.05000007	          0.05000107	          0.08483914	          0.28956326	          0.22478346	          0.19336267	          0.05000002	          0.05000002	          0.24215184	          0.13531207	          0.19738525	          0.05000001	          0.24670155	          0.25495863	          0.20489917	          0.05000001	          0.05000003	          0.05000000	          0.09280864	          0.05000150	          0.05000033	          0.69520302	          0.24271322	          0.13140584	          0.47539801	          0.53343677	          0.34165037	          0.09390723	          0.08115464	          0.05053741	          0.24484181	          0.05000025	          0.05000001	          0.21813139	          0.10039788	          0.05242985	          0.05000041	          0.05000007	          0.05000008	          0.05000002	          0.05331857	          0.16030299	          0.12265117	          0.05000035	          0.05000471	          0.11977486	          0.16127909	          0.05416378	          0.05000011	          0.05000057	          0.05000038	          0.05000027	          0.19808475	          0.44007458	          0.05000003	          0.05000013	          0.05000003	          0.11993970	          0.10057987	          0.10057987	          0.10057987	          0.14102976	          0.19223740	          0.17679472	          0.13117898	          0.12284653	          0.16279407	          0.17577825	          0.12691585	          0.13257246	          0.22524198	          0.19542157	          0.13776123	          0.10498857	          0.05000000	          0.05000000	
